<svg width="25" height="25" viewBox="0 0 25 25" fill="none" xmlns="http://www.w3.org/2000/svg">
<path d="M15.3065 5H8.92823C6.76221 5 5 6.80032 5 9.01308V15.529C5 17.7418 6.76221 19.542 8.92823 19.542H15.3065C17.4727 19.542 19.2349 17.7417 19.2349 15.529V9.01308C19.235 6.80032 17.4727 5 15.3065 5ZM17.972 15.529C17.972 17.0304 16.7763 18.2518 15.3066 18.2518H8.92823C7.45862 18.2519 6.26299 17.0304 6.26299 15.529V9.01308C6.26299 7.51175 7.45862 6.29024 8.92823 6.29024H15.3065C16.7762 6.29024 17.9719 7.51175 17.9719 9.01308V15.529H17.972Z" fill="white"/>
<path d="M12.1172 8.52344C10.0946 8.52344 8.44922 10.2044 8.44922 12.2706C8.44922 14.3367 10.0946 16.0175 12.1172 16.0175C14.1397 16.0175 15.7852 14.3367 15.7852 12.2706C15.7852 10.2044 14.1397 8.52344 12.1172 8.52344ZM12.1172 14.7272C10.7911 14.7272 9.71221 13.6251 9.71221 12.2705C9.71221 10.9157 10.7911 9.81359 12.1172 9.81359C13.4433 9.81359 14.5222 10.9157 14.5222 12.2705C14.5222 13.6251 13.4432 14.7272 12.1172 14.7272Z" fill="white"/>
<path d="M15.9379 7.42969C15.6946 7.42969 15.4555 7.53033 15.2837 7.70666C15.111 7.88213 15.0117 8.12642 15.0117 8.37586C15.0117 8.62454 15.1111 8.86874 15.2837 9.04507C15.4554 9.22054 15.6946 9.32204 15.9379 9.32204C16.1821 9.32204 16.4204 9.22054 16.593 9.04507C16.7656 8.86874 16.8641 8.62445 16.8641 8.37586C16.8641 8.12642 16.7656 7.88213 16.593 7.70666C16.4212 7.53033 16.1821 7.42969 15.9379 7.42969Z" fill="white"/>
</svg>
