<svg width="25" height="25" viewBox="0 0 25 25" fill="none" xmlns="http://www.w3.org/2000/svg">
<path fill-rule="evenodd" clip-rule="evenodd" d="M15.7292 18.0879V13.7237C15.7292 13.1473 15.6202 12.6958 15.4027 12.3692C15.185 12.0425 14.8451 11.8792 14.3829 11.8792C14.0444 11.8792 13.7609 11.9739 13.5325 12.1635C13.304 12.3528 13.1336 12.5873 13.0206 12.8675C12.9615 13.0322 12.932 13.2546 12.932 13.5344V18.0881H10.2801C10.2909 15.8977 10.2962 14.122 10.2962 12.7604C10.2962 11.399 10.2936 10.5866 10.2881 10.323L10.28 9.92777H12.932V11.0881C13.0344 10.9233 13.1391 10.7777 13.2464 10.6525C13.3592 10.5208 13.511 10.3781 13.7018 10.2244C13.8926 10.0707 14.1263 9.95131 14.403 9.86621C14.6799 9.78111 14.9875 9.73856 15.3261 9.73856C16.2449 9.73856 16.9839 10.0502 17.5426 10.6733C18.1015 11.2961 18.3809 12.2087 18.3811 13.411V18.0879H15.7292ZM7.48313 8.8161H7.46701C7.02635 8.8161 6.67167 8.68158 6.40306 8.41263C6.13435 8.14369 6 7.80874 6 7.4081C6 7.0018 6.13831 6.66564 6.41513 6.39943C6.69195 6.13321 7.05326 6 7.49926 6C7.94526 6 8.30271 6.13311 8.57132 6.39943C8.83993 6.66564 8.97705 7.0018 8.98239 7.4081C8.98773 7.80884 8.85209 8.14369 8.57537 8.41263C8.29865 8.68168 7.93457 8.8161 7.48313 8.8161ZM8.81311 18.0881H6.15315V9.92787H8.81311V18.0881Z" fill="white"/>
</svg>
