<svg xmlns="http://www.w3.org/2000/svg" width="50" height="50" viewBox="0 0 50 50" fill="none"><path d="M25 48.0555C24.7804 48.0552 24.5632 48.0087 24.3628 47.9189C24.1624 47.8291 23.9831 47.6981 23.8367 47.5344C19.8945 43.125 7.03125 28.0781 7.03125 19.5312C7.03125 14.7656 8.92438 10.1952 12.2942 6.82542C15.664 3.45563 20.2344 1.5625 25 1.5625C29.7656 1.5625 34.336 3.45563 37.7058 6.82542C41.0756 10.1952 42.9688 14.7656 42.9688 19.5312C42.9688 28.0781 30.1055 43.125 26.1633 47.5344C26.0169 47.6981 25.8376 47.8291 25.6372 47.9189C25.4368 48.0087 25.2196 48.0552 25 48.0555ZM25 3.125C20.6503 3.12976 16.48 4.85979 13.4043 7.93553C10.3285 11.0113 8.59851 15.1815 8.59375 19.5312C8.59375 27.7305 22.2656 43.4289 25 46.493C27.7383 43.4289 41.4062 27.7305 41.4062 19.5312C41.4015 15.1815 39.6715 11.0113 36.5957 7.93553C33.52 4.85979 29.3497 3.12976 25 3.125Z" fill="#E00031"></path><path d="M25 32.8125C22.3732 32.8125 19.8054 32.0336 17.6213 30.5742C15.4372 29.1149 13.735 27.0406 12.7297 24.6138C11.7245 22.1869 11.4615 19.5165 11.974 16.9402C12.4864 14.3639 13.7513 11.9974 15.6087 10.14C17.4662 8.28258 19.8327 7.01766 22.409 6.5052C24.9853 5.99274 27.6557 6.25575 30.0825 7.26098C32.5094 8.26621 34.5836 9.9685 36.043 12.1526C37.5023 14.3367 38.2813 16.9045 38.2813 19.5313C38.2773 23.0525 36.8768 26.4283 34.3869 28.9182C31.8971 31.408 28.5212 32.8086 25 32.8125ZM25 7.81251C22.6823 7.81251 20.4166 8.4998 18.4894 9.78747C16.5623 11.0751 15.0603 12.9054 14.1733 15.0467C13.2863 17.188 13.0543 19.5443 13.5064 21.8175C13.9586 24.0907 15.0747 26.1788 16.7136 27.8177C18.3525 29.4566 20.4406 30.5727 22.7138 31.0248C24.987 31.477 27.3433 31.2449 29.4846 30.358C31.6259 29.471 33.4561 27.969 34.7438 26.0418C36.0315 24.1147 36.7188 21.849 36.7188 19.5313C36.7152 16.4243 35.4795 13.4457 33.2825 11.2487C31.0856 9.0518 28.1069 7.81602 25 7.81251Z" fill="#E00031"></path><path d="M32.8125 15.625H28.9062V11.7188C28.9062 11.3043 28.7416 10.9069 28.4486 10.6139C28.1556 10.3209 27.7582 10.1562 27.3438 10.1562H22.6562C22.2418 10.1562 21.8444 10.3209 21.5514 10.6139C21.2584 10.9069 21.0938 11.3043 21.0938 11.7188V15.625H17.1875C16.7731 15.625 16.3757 15.7896 16.0826 16.0826C15.7896 16.3757 15.625 16.7731 15.625 17.1875V21.875C15.625 22.2894 15.7896 22.6868 16.0826 22.9799C16.3757 23.2729 16.7731 23.4375 17.1875 23.4375H21.0938V27.3438C21.0938 27.7582 21.2584 28.1556 21.5514 28.4486C21.8444 28.7416 22.2418 28.9062 22.6562 28.9062H27.3438C27.7582 28.9062 28.1556 28.7416 28.4486 28.4486C28.7416 28.1556 28.9062 27.7582 28.9062 27.3438V23.4375H32.8125C33.2269 23.4375 33.6243 23.2729 33.9174 22.9799C34.2104 22.6868 34.375 22.2894 34.375 21.875V17.1875C34.375 16.7731 34.2104 16.3757 33.9174 16.0826C33.6243 15.7896 33.2269 15.625 32.8125 15.625ZM32.8125 21.875H28.9062C28.4918 21.875 28.0944 22.0396 27.8014 22.3326C27.5084 22.6257 27.3438 23.0231 27.3438 23.4375V27.3438H22.6562V23.4375C22.6562 23.0231 22.4916 22.6257 22.1986 22.3326C21.9056 22.0396 21.5082 21.875 21.0938 21.875H17.1875V17.1875H21.0938C21.5082 17.1875 21.9056 17.0229 22.1986 16.7299C22.4916 16.4368 22.6562 16.0394 22.6562 15.625V11.7188H27.3438V15.625C27.3438 16.0394 27.5084 16.4368 27.8014 16.7299C28.0944 17.0229 28.4918 17.1875 28.9062 17.1875H32.8125V21.875Z" fill="#E00031"></path></svg>