<svg xmlns="http://www.w3.org/2000/svg" width="50" height="50" viewBox="0 0 50 50" fill="none"><g clip-path="url(#clip0)"><path d="M48.0812 19.5695C47.629 19.3646 47.1372 19.2623 46.6409 19.2697C46.1446 19.2771 45.656 19.3941 45.2102 19.6123C44.7644 19.8306 44.3723 20.1447 44.062 20.5321C43.7518 20.9196 43.531 21.3708 43.4155 21.8536L41.5233 28.9034C40.9834 28.5461 40.3515 28.353 39.7041 28.3475C39.0567 28.342 38.4216 28.5244 37.8758 28.8726C37.7299 28.9676 30.1205 33.8243 30.1205 33.8252C28.8048 34.648 27.7208 35.7928 26.9709 37.1513C26.2211 38.5098 25.8301 40.0371 25.835 41.5888V49.4926H27.5028V41.5888C27.4992 40.318 27.82 39.0672 28.4347 37.955C29.0495 36.8427 29.938 35.9058 31.0161 35.2328C31.0161 35.2328 38.6355 30.3669 38.7806 30.2727C39.1019 30.0676 39.4834 29.9781 39.8624 30.0189C40.2413 30.0596 40.5951 30.2283 40.8654 30.497C41.1701 30.8018 41.345 31.2128 41.3534 31.6438C41.3618 32.0747 41.203 32.4922 40.9104 32.8086L36.047 36.2276C35.866 36.3544 35.7427 36.5479 35.7042 36.7656C35.6657 36.9832 35.7153 37.2073 35.8419 37.3884C35.9691 37.5693 36.1629 37.6923 36.3808 37.7303C36.5986 37.7683 36.8226 37.7182 37.0035 37.5911L41.9319 34.1279L42.042 34.0345C42.493 33.5885 42.8054 33.0216 42.9417 32.4021C43.078 31.7826 43.0322 31.137 42.81 30.5429L45.0266 22.2872C45.1286 21.8562 45.3897 21.4796 45.7576 21.233C46.1255 20.9863 46.573 20.8878 47.0104 20.9571C47.3832 21.0369 47.7177 21.2416 47.9583 21.5373C48.199 21.833 48.3315 22.202 48.3338 22.5832C48.335 22.7299 48.3165 22.876 48.2788 23.0177L45.2767 34.2388C45.1631 34.6627 44.9399 35.0492 44.6296 35.3595L38.3853 41.6005C37.2908 42.6951 36.6759 44.1796 36.6758 45.7275V49.4926H38.3436V45.7284C38.3436 45.1807 38.4515 44.6384 38.6611 44.1325C38.8708 43.6265 39.178 43.1668 39.5653 42.7797L45.8063 36.5379C46.3238 36.0202 46.696 35.3754 46.8853 34.6682L49.8874 23.4505C49.9908 23.0612 50.0238 22.6565 49.985 22.2555C49.926 21.6817 49.7197 21.1329 49.3861 20.6623C49.0526 20.1917 48.603 19.8152 48.0812 19.5695V19.5695Z" fill="#E00031"></path><path d="M19.884 33.8285C17.5565 32.3383 12.1211 28.8593 11.9118 28.7459C11.3785 28.4598 10.7777 28.3236 10.1732 28.3516C9.56872 28.3797 8.98311 28.571 8.4786 28.9051L6.58563 21.8536C6.4553 21.2977 6.18512 20.7843 5.8007 20.3621C5.41627 19.9399 4.93037 19.623 4.38906 19.4413C3.84776 19.2596 3.26902 19.2192 2.70773 19.324C2.14645 19.4287 1.62123 19.6752 1.1819 20.0399C0.72721 20.4007 0.383544 20.8826 0.190388 21.43C-0.0332471 22.0807 -0.0605079 22.7828 0.112001 23.4489L3.11407 34.6683C3.30327 35.3757 3.67544 36.0208 4.19315 36.5387L10.4349 42.7805C11.2173 43.5618 11.6574 44.6219 11.6583 45.7276V49.4926H13.3261V45.7284C13.3261 44.9617 13.175 44.2026 12.8815 43.4943C12.5881 42.7861 12.1579 42.1426 11.6158 41.6005L5.37479 35.3596C5.06452 35.0492 4.84135 34.6627 4.72768 34.2388L1.72561 23.0152C1.68848 22.874 1.67025 22.7285 1.67141 22.5824C1.67369 22.201 1.80623 21.8319 2.04708 21.5361C2.28793 21.2404 2.62261 21.0358 2.99565 20.9563C3.43268 20.8889 3.8791 20.9882 4.2463 21.2346C4.61349 21.481 4.87462 21.8564 4.97785 22.2864L7.19521 30.5421C6.97298 31.136 6.92723 31.7816 7.0635 32.4009C7.19977 33.0203 7.51224 33.587 7.96324 34.0328L13.0017 37.5878C13.182 37.7142 13.4049 37.7642 13.6219 37.7269C13.8389 37.6895 14.0324 37.5679 14.16 37.3885C14.2872 37.2076 14.3372 36.9835 14.2992 36.7657C14.2612 36.5479 14.1383 36.354 13.9574 36.2268L9.09402 32.8078C8.80126 32.4915 8.64234 32.0741 8.65058 31.6431C8.65882 31.2122 8.83358 30.8012 9.13822 30.4962C9.39084 30.2441 9.71749 30.0795 10.0704 30.0264C10.4233 29.9733 10.7839 30.0345 11.0996 30.201C11.3623 30.3561 15.9588 33.2948 18.99 35.2353C20.0671 35.9084 20.9546 36.8451 21.5687 37.9569C22.1827 39.0687 22.503 40.3188 22.4991 41.5889V49.4926H24.1669V41.5889C24.1717 40.0379 23.7809 38.5114 23.0315 37.1535C22.282 35.7956 21.1987 34.6512 19.884 33.8285V33.8285Z" fill="#E00031"></path><path d="M40.4414 3.15389C39.4382 2.15023 38.2464 1.35488 36.9346 0.813615C35.6228 0.272351 34.2169 -0.00414281 32.7978 4.69112e-05C29.7632 4.69112e-05 26.9421 2.19239 25.1083 4.03366L24.9882 4.15374L24.8565 4.02198C23.0219 2.18739 20.2108 0.00838598 17.1954 0.00838598C15.0482 0.00701635 12.949 0.643296 11.1639 1.83654C9.37883 3.02979 7.98829 4.72626 7.16863 6.71082C6.34897 8.69539 6.13711 10.8787 6.5599 12.9838C6.98269 15.0889 8.02109 17.0211 9.54344 18.5353L25.0008 33.1254L40.4856 18.4836C41.49 17.4746 42.2857 16.2775 42.8272 14.9607C43.3686 13.6439 43.6452 12.2333 43.6411 10.8096C43.637 9.38585 43.3523 7.97689 42.8032 6.66326C42.2542 5.34963 41.4516 4.15711 40.4414 3.15389V3.15389ZM39.3206 17.2911L25.0008 30.8355L10.7051 17.3395C9.42262 16.0558 8.54949 14.4208 8.19603 12.641C7.84258 10.8612 8.02466 9.01664 8.71926 7.34032C9.41386 5.66401 10.5898 4.23123 12.0985 3.22306C13.6072 2.2149 15.3809 1.6766 17.1954 1.6762C19.6396 1.6762 22.0696 3.59419 23.6773 5.20196L25.0008 6.51954L26.2925 5.21197C28.5657 2.92873 30.879 1.6712 32.797 1.6712C34.6069 1.67105 36.3765 2.20637 37.8829 3.20977C39.3893 4.21317 40.5652 5.63979 41.2625 7.31005C41.9599 8.9803 42.1475 10.8195 41.8018 12.5962C41.4561 14.3729 40.5925 16.0075 39.3198 17.2945L39.3206 17.2911Z" fill="#E00031"></path><path d="M27.5022 21.1396V17.8039H30.8378V12.8005H27.5022V9.46484H22.4987V12.8005H19.1631V17.8039H22.4987V21.1396H27.5022ZM20.8309 16.1361V14.4683H24.1665V11.1327H25.8343V14.4683H29.17V16.1361H25.8343V19.4717H24.1665V16.1361H20.8309Z" fill="#E00031"></path></g><defs><clipPath id="clip0"><rect width="50" height="50" fill="white"></rect></clipPath></defs></svg>