<svg xmlns="http://www.w3.org/2000/svg" width="51" height="50" viewBox="0 0 51 50" fill="none"><path d="M36.0937 31.25H25.8935V25.7414C28.4531 25.5433 30.8437 24.3921 32.5888 22.5171C34.3338 20.6422 35.3051 18.1813 35.3091 15.625V14.0625C35.3071 13.5795 35.1552 13.1089 34.8743 12.7151C34.5934 12.3213 34.1972 12.0235 33.7398 11.8625V5.46875C33.7398 4.84715 33.4918 4.25101 33.0504 3.81147C32.6089 3.37193 32.0102 3.125 31.3859 3.125C31.3859 2.7106 31.2206 2.31317 30.9263 2.02015C30.632 1.72712 30.2328 1.5625 29.8166 1.5625C29.1924 1.5625 28.5936 1.80943 28.1522 2.24897C27.7107 2.68851 27.4627 3.28465 27.4627 3.90625C27.4627 4.52785 27.7107 5.12399 28.1522 5.56353C28.5936 6.00307 29.1924 6.25 29.8166 6.25C30.2328 6.25 30.632 6.08538 30.9263 5.79235C31.2206 5.49933 31.3859 5.1019 31.3859 4.6875C31.594 4.6875 31.7936 4.76981 31.9407 4.91632C32.0879 5.06284 32.1705 5.26155 32.1705 5.46875V11.8625C31.7132 12.0235 31.3169 12.3213 31.036 12.7151C30.7551 13.1089 30.6033 13.5795 30.6013 14.0625V15.625C30.5994 16.3738 30.4437 17.1143 30.1438 17.801C29.8438 18.4877 29.4059 19.106 28.857 19.618C28.3086 20.1331 27.6588 20.5291 26.9486 20.781C26.2384 21.0329 25.4834 21.1351 24.7314 21.0812C23.3162 20.9534 22.0021 20.2968 21.0532 19.2436C20.1043 18.1904 19.591 16.8186 19.6164 15.4039V14.0625C19.6144 13.5795 19.4626 13.1089 19.1817 12.7151C18.9008 12.3213 18.5045 12.0235 18.0472 11.8625V5.46875C18.0472 5.26155 18.1298 5.06284 18.277 4.91632C18.4241 4.76981 18.6237 4.6875 18.8318 4.6875C18.8318 5.1019 18.9971 5.49933 19.2914 5.79235C19.5857 6.08538 19.9849 6.25 20.4011 6.25C21.0254 6.25 21.6241 6.00307 22.0655 5.56353C22.507 5.12399 22.755 4.52785 22.755 3.90625C22.755 3.28465 22.507 2.68851 22.0655 2.24897C21.6241 1.80943 21.0254 1.5625 20.4011 1.5625C19.9849 1.5625 19.5857 1.72712 19.2914 2.02015C18.9971 2.31317 18.8318 2.7106 18.8318 3.125C18.2075 3.125 17.6088 3.37193 17.1673 3.81147C16.7259 4.25101 16.4779 4.84715 16.4779 5.46875V11.8625C16.0205 12.0235 15.6243 12.3213 15.3434 12.7151C15.0625 13.1089 14.9106 13.5795 14.9086 14.0625V15.625C14.9126 18.1813 15.8839 20.6422 17.6289 22.5171C19.374 24.3921 21.7646 25.5433 24.3242 25.7414V31.25H14.838C14.6413 30.0911 14.0145 29.0481 13.0818 28.3276C12.1491 27.6072 10.9787 27.2619 9.80238 27.3602C8.62608 27.4585 7.52979 27.9932 6.73076 28.8583C5.93174 29.7235 5.48828 30.8559 5.48828 32.0312C5.48828 33.2066 5.93174 34.339 6.73076 35.2042C7.52979 36.0693 8.62608 36.604 9.80238 36.7023C10.9787 36.8006 12.1491 36.4553 13.0818 35.7349C14.0145 35.0144 14.6413 33.9714 14.838 32.8125H24.3242V39.0625C24.3269 41.5481 25.3198 43.9311 27.085 45.6887C28.8501 47.4462 31.2435 48.4348 33.7398 48.4375H36.0937C38.3828 48.4375 40.5781 47.5321 42.1967 45.9204C43.8153 44.3088 44.7247 42.123 44.7247 39.8438C44.7247 37.5645 43.8153 35.3787 42.1967 33.7671C40.5781 32.1554 38.3828 31.25 36.0937 31.25ZM29.8166 4.6875C29.6085 4.6875 29.409 4.60519 29.2618 4.45868C29.1147 4.31216 29.032 4.11345 29.032 3.90625C29.032 3.69905 29.1147 3.50034 29.2618 3.35382C29.409 3.20731 29.6085 3.125 29.8166 3.125V4.6875ZM20.4011 3.125C20.6092 3.125 20.8087 3.20731 20.9559 3.35382C21.103 3.50034 21.1857 3.69905 21.1857 3.90625C21.1857 4.11345 21.103 4.31216 20.9559 4.45868C20.8087 4.60519 20.6092 4.6875 20.4011 4.6875V3.125ZM10.2008 35.1562C9.5801 35.1562 8.9733 34.973 8.45717 34.6296C7.94104 34.2862 7.53877 33.7982 7.30122 33.2271C7.06367 32.6561 7.00152 32.0278 7.12262 31.4216C7.24372 30.8154 7.54264 30.2586 7.98157 29.8215C8.4205 29.3845 8.97973 29.0869 9.58855 28.9663C10.1974 28.8457 10.8284 28.9076 11.4019 29.1441C11.9754 29.3807 12.4656 29.7812 12.8104 30.2951C13.1553 30.809 13.3394 31.4132 13.3394 32.0312C13.3394 32.8601 13.0087 33.6549 12.4201 34.241C11.8315 34.827 11.0332 35.1562 10.2008 35.1562ZM16.4779 15.625V14.0625C16.4779 13.8553 16.5606 13.6566 16.7077 13.5101C16.8549 13.3636 17.0544 13.2812 17.2625 13.2812C17.4706 13.2812 17.6702 13.3636 17.8174 13.5101C17.9645 13.6566 18.0472 13.8553 18.0472 14.0625V15.4039C18.0226 17.2147 18.6876 18.9675 19.9083 20.31C21.1291 21.6524 22.815 22.4848 24.6271 22.6398C25.5935 22.7083 26.5636 22.5765 27.4763 22.2529C28.3889 21.9292 29.2243 21.4207 29.9296 20.7594C30.6351 20.101 31.1979 19.3059 31.5833 18.4229C31.9687 17.5399 32.1685 16.5878 32.1705 15.625V14.0625C32.1705 13.8553 32.2532 13.6566 32.4004 13.5101C32.5475 13.3636 32.7471 13.2812 32.9552 13.2812C33.1633 13.2812 33.3628 13.3636 33.51 13.5101C33.6571 13.6566 33.7398 13.8553 33.7398 14.0625V15.625C33.7398 17.9042 32.8305 20.0901 31.2119 21.7017C29.5932 23.3133 27.3979 24.2188 25.1089 24.2188C22.8198 24.2188 20.6245 23.3133 19.0058 21.7017C17.3872 20.0901 16.4779 17.9042 16.4779 15.625ZM36.0937 46.875H33.7398C31.6595 46.8727 29.6651 46.0489 28.1941 44.5843C26.7232 43.1196 25.8958 41.1338 25.8935 39.0625V32.8125H36.0937C37.9666 32.8125 39.7627 33.5533 41.0871 34.8719C42.4114 36.1905 43.1554 37.9789 43.1554 39.8438C43.1554 41.7086 42.4114 43.497 41.0871 44.8156C39.7627 46.1342 37.9666 46.875 36.0937 46.875V46.875Z" fill="#E00031"></path><path d="M10.2011 33.5938C11.0678 33.5938 11.7704 32.8942 11.7704 32.0312C11.7704 31.1683 11.0678 30.4688 10.2011 30.4688C9.33442 30.4688 8.63184 31.1683 8.63184 32.0312C8.63184 32.8942 9.33442 33.5938 10.2011 33.5938Z" fill="#E00031"></path></svg>