<svg xmlns="http://www.w3.org/2000/svg" width="50" height="50" viewBox="0 0 50 50" fill="none"><path d="M25.0001 48.5297L17.9923 45.0258C14.2207 43.1557 11.0484 40.2665 8.83496 36.6856C6.6215 33.1047 5.45542 28.9754 5.46887 24.7656V7.8125H6.75402C12.4326 7.79464 17.9795 6.10006 22.6986 2.94141L25.0001 1.40625L27.3298 2.95938C32.0761 6.12912 37.6567 7.81821 43.3642 7.8125H44.5314V24.7656C44.5448 28.9754 43.3787 33.1047 41.1653 36.6856C38.9518 40.2665 35.7795 43.1557 32.0079 45.0258L25.0001 48.5297ZM7.03137 9.375V24.7656C7.01879 28.685 8.10448 32.5296 10.1654 35.8635C12.2263 39.1974 15.1799 41.8872 18.6915 43.6281L25.0001 46.7828L31.3087 43.6281C34.8203 41.8872 37.774 39.1974 39.8349 35.8635C41.8957 32.5296 42.9814 28.685 42.9689 24.7656V9.375C37.0874 9.30346 31.3532 7.52577 26.4626 4.25781L25.0001 3.28125L23.5665 4.24062C18.6696 7.52001 12.9245 9.30395 7.03137 9.375Z" fill="#E00031"></path><path d="M39.1595 12.2383C34.2707 11.6315 29.5776 9.94699 25.4188 7.3063L25.0001 7.04224L24.5829 7.3063C20.4231 9.94687 15.7289 11.6309 10.8392 12.2368L10.1563 12.3219V24.7657C10.1458 28.1044 11.0708 31.3793 12.8264 34.2192C14.5819 37.0591 17.0979 39.3505 20.0892 40.8336L25.0001 43.2891L29.911 40.8336C32.9023 39.3505 35.4182 37.0591 37.1738 34.2192C38.9294 31.3793 39.8543 28.1044 39.8438 24.7657V12.3243L39.1595 12.2383ZM38.2813 24.7657C38.2909 27.814 37.4463 30.804 35.8435 33.3968C34.2407 35.9897 31.9436 38.0818 29.2126 39.436L25.0001 41.5422L20.7876 39.4329C18.0571 38.0789 15.7603 35.9873 14.1575 33.395C12.5547 30.8028 11.7099 27.8134 11.7188 24.7657V13.6946C16.4283 13.0177 20.9486 11.3813 25.0001 8.88677C29.0517 11.3812 33.572 13.0181 38.2813 13.6961V24.7657Z" fill="#E00031"></path><path d="M32.8125 21.0938H28.9062V17.1875C28.9062 16.7731 28.7416 16.3757 28.4486 16.0826C28.1556 15.7896 27.7582 15.625 27.3438 15.625H22.6562C22.2418 15.625 21.8444 15.7896 21.5514 16.0826C21.2584 16.3757 21.0938 16.7731 21.0938 17.1875V21.0938H17.1875C16.7731 21.0938 16.3757 21.2584 16.0826 21.5514C15.7896 21.8444 15.625 22.2418 15.625 22.6562V27.3438C15.625 27.7582 15.7896 28.1556 16.0826 28.4486C16.3757 28.7416 16.7731 28.9062 17.1875 28.9062H21.0938V32.8125C21.0938 33.2269 21.2584 33.6243 21.5514 33.9174C21.8444 34.2104 22.2418 34.375 22.6562 34.375H27.3438C27.7582 34.375 28.1556 34.2104 28.4486 33.9174C28.7416 33.6243 28.9062 33.2269 28.9062 32.8125V28.9062H32.8125C33.2269 28.9062 33.6243 28.7416 33.9174 28.4486C34.2104 28.1556 34.375 27.7582 34.375 27.3438V22.6562C34.375 22.2418 34.2104 21.8444 33.9174 21.5514C33.6243 21.2584 33.2269 21.0938 32.8125 21.0938ZM32.8125 27.3438H28.9062C28.4918 27.3438 28.0944 27.5084 27.8014 27.8014C27.5084 28.0944 27.3438 28.4918 27.3438 28.9062V32.8125H22.6562V28.9062C22.6562 28.4918 22.4916 28.0944 22.1986 27.8014C21.9056 27.5084 21.5082 27.3438 21.0938 27.3438H17.1875V22.6562H21.0938C21.5082 22.6562 21.9056 22.4916 22.1986 22.1986C22.4916 21.9056 22.6562 21.5082 22.6562 21.0938V17.1875H27.3438V21.0938C27.3438 21.5082 27.5084 21.9056 27.8014 22.1986C28.0944 22.4916 28.4918 22.6562 28.9062 22.6562H32.8125V27.3438Z" fill="#E00031"></path></svg>