<svg width="39" height="39" viewBox="0 0 39 39" fill="none" xmlns="http://www.w3.org/2000/svg">
<path fill-rule="evenodd" clip-rule="evenodd" d="M19.1453 38.6706H19.1532C29.6253 38.6663 38.1424 30.1472 38.1466 19.6773C38.1486 14.6023 36.1748 9.8303 32.5888 6.24031C29.0028 2.65013 24.234 0.672115 19.153 0.669922C8.68392 0.669922 0.163409 9.18997 0.159243 19.6623C0.157817 23.0098 1.03243 26.2772 2.69457 29.1577L0 39L10.0688 36.3588C12.843 37.872 15.9665 38.6695 19.1453 38.6706ZM28.0692 23.7665C28.4002 23.9264 28.6238 24.0345 28.7192 24.1938C28.8378 24.3917 28.8378 25.3419 28.4425 26.4506C28.0469 27.5592 26.1509 28.5709 25.239 28.7071C24.4214 28.8294 23.3868 28.8804 22.2499 28.5191C21.5606 28.3004 20.6767 28.0084 19.5444 27.5194C15.0952 25.5983 12.0885 21.2861 11.5203 20.4711C11.4805 20.414 11.4526 20.3741 11.4371 20.3533L11.4333 20.3482C11.1821 20.0131 9.49926 17.7678 9.49926 15.4439C9.49926 13.2579 10.5731 12.1121 11.0674 11.5846C11.1012 11.5485 11.1324 11.5153 11.1603 11.4848C11.5953 11.0097 12.1095 10.8909 12.4258 10.8909C12.7422 10.8909 13.0589 10.8938 13.3354 10.9077C13.3695 10.9094 13.405 10.9092 13.4417 10.909C13.7183 10.9074 14.0631 10.9053 14.4032 11.7224C14.5341 12.0368 14.7255 12.503 14.9275 12.9946C15.3358 13.9888 15.787 15.0873 15.8664 15.2462C15.9851 15.4838 16.0642 15.7608 15.906 16.0777C15.8822 16.1252 15.8603 16.17 15.8393 16.2129C15.7205 16.4555 15.6331 16.6339 15.4314 16.8693C15.3521 16.9619 15.2702 17.0617 15.1882 17.1615C15.0249 17.3604 14.8617 17.5592 14.7195 17.7008C14.4819 17.9375 14.2346 18.1942 14.5115 18.6694C14.7883 19.1445 15.7407 20.6985 17.1516 21.957C18.6682 23.3098 19.9863 23.8815 20.6545 24.1713C20.7849 24.2279 20.8906 24.2737 20.9681 24.3126C21.4425 24.5502 21.7194 24.5104 21.9963 24.1938C22.2731 23.8771 23.1826 22.808 23.499 22.3329C23.8153 21.858 24.1318 21.9371 24.5667 22.0954C25.0018 22.2539 27.3351 23.4019 27.8097 23.6394C27.9023 23.6858 27.989 23.7277 28.0692 23.7665Z" fill="#25D366"/>
</svg>
